<?xml version="1.0" ?><svg xmlns="http://www.w3.org/2000/svg" viewBox="0 0 112 112"><defs><style>.a{fill:none;}</style></defs><rect class="a" width="112" height="112"/><path d="M36.86,50.81v3.78L23.32,46.87V45.46l13.54-7.72v3.78l-8.6,4.63Z"/><path d="M51.43,32.11l-10,26.28H38l10-26.28Z"/><path d="M52.57,41.52V37.74l13.55,7.72v1.41L52.57,54.59V50.81l8.61-4.66Z"/><rect x="42.12" y="69.32" width="5.21" height="18.24"/><rect x="24.31" y="82.34" width="41.68" height="5.21"/><polygon points="76.74 67.4 5.21 67.4 5.21 23.05 84.23 23.05 84.23 57.77 89.44 51.07 89.44 17.22 0 17.22 0 73.28 72.17 73.28 76.74 67.4"/><path d="M99.45,46.29l9,6L85.38,83.53a3.24,3.24,0,0,1-.76.67l-11,6,.89-11.46a2,2,0,0,1,.29-.74L99.45,46.29m.82-3.95a.94.94,0,0,0-.76.36L71.88,78.22a3.53,3.53,0,0,0-.61,1.58L70.15,94.23c0,.35.13.55.38.55a.71.71,0,0,0,.32-.09l13.76-7.53A4.69,4.69,0,0,0,85.91,86l25.92-35.11a.84.84,0,0,0-.21-1.21l-10.83-7.22a1,1,0,0,0-.52-.15Z"/><polyline points="70.42 94.47 71.7 81.86 79.46 89.11"/></svg>